<svg width="18" height="18" viewBox="0 0 18 18" fill="none" xmlns="http://www.w3.org/2000/svg">
<path d="M18 18H0V0H18V18Z" stroke="black"/>
<path d="M1.67344 10.5609L8.02617 16.4918C8.28984 16.7379 8.63789 16.875 9 16.875C9.36211 16.875 9.71016 16.7379 9.97383 16.4918L16.3266 10.5609C17.3953 9.56602 18 8.17032 18 6.71133V6.50743C18 4.05001 16.2246 1.95469 13.8023 1.5504C12.1992 1.28321 10.568 1.80704 9.42188 2.95313L9 3.37501L8.57812 2.95313C7.43203 1.80704 5.80078 1.28321 4.19766 1.5504C1.77539 1.95469 0 4.05001 0 6.50743V6.71133C0 8.17032 0.604687 9.56602 1.67344 10.5609Z" fill="#EF4444"/>
</svg>
