<svg width="16" height="18" viewBox="0 0 16 18" fill="none" xmlns="http://www.w3.org/2000/svg">
<g clip-path="url(#clip0_15_188)">
<path d="M0.330467 8.20548C-0.108986 8.64493 -0.108986 9.35861 0.330467 9.79806L5.95547 15.4231C6.39492 15.8625 7.10859 15.8625 7.54805 15.4231C7.9875 14.9836 7.9875 14.2699 7.54805 13.8305L3.83906 10.125H14.625C15.2473 10.125 15.75 9.62228 15.75 9.00001C15.75 8.37775 15.2473 7.87501 14.625 7.87501H3.84258L7.54453 4.16954C7.98398 3.73009 7.98398 3.01642 7.54453 2.57697C7.10508 2.13751 6.39141 2.13751 5.95195 2.57697L0.326952 8.20197L0.330467 8.20548Z" fill="#374151"/>
</g>
<defs>
<clipPath id="clip0_15_188">
<path d="M0 0H15.75V18H0V0Z" fill="white"/>
</clipPath>
</defs>
</svg>
