<svg width="20" height="20" viewBox="0 0 20 20" fill="none" xmlns="http://www.w3.org/2000/svg">
<g clip-path="url(#clip0_12_851)">
<path d="M19.4961 0.246067C19.8125 0.480442 20 0.855442 20 1.24997V4.06247V14.375C20 16.1015 18.3203 17.5 16.25 17.5C14.1797 17.5 12.5 16.1015 12.5 14.375C12.5 12.6484 14.1797 11.25 16.25 11.25C16.6875 11.25 17.1094 11.3125 17.5 11.4297V5.74216L7.5 8.74216V16.875C7.5 18.6015 5.82031 20 3.75 20C1.67969 20 0 18.6015 0 16.875C0 15.1484 1.67969 13.75 3.75 13.75C4.1875 13.75 4.60938 13.8125 5 13.9297V7.81247V4.99997C5 4.44919 5.36328 3.96091 5.89062 3.80075L18.3906 0.0507546C18.7695 -0.0625267 19.1797 0.00778582 19.4961 0.246067Z" fill="#0A4588"/>
</g>
<defs>
<clipPath id="clip0_12_851">
<path d="M0 0H20V20H0V0Z" fill="white"/>
</clipPath>
</defs>
</svg>
