<svg width="365" height="71" viewBox="0 0 365 71" fill="none" xmlns="http://www.w3.org/2000/svg">
<path d="M350 61H15V5H350V61Z" stroke="#E5E7EB"/>
<g filter="url(#filter0_dd_15_474)">
<path d="M15 21C15 12.1634 22.1634 5 31 5H73.75C82.5866 5 89.75 12.1634 89.75 21V45C89.75 53.8366 82.5866 61 73.75 61H31C22.1634 61 15 53.8366 15 45V21Z" fill="url(#paint0_linear_15_474)"/>
<path d="M62.875 49H41.875V17H62.875V49Z" stroke="#E5E7EB"/>
<g clip-path="url(#clip0_15_474)">
<path d="M52.3797 26.6093C49.3984 26.6093 46.9938 29.014 46.9938 31.9952C46.9938 34.9765 49.3984 37.3812 52.3797 37.3812C55.3609 37.3812 57.7656 34.9765 57.7656 31.9952C57.7656 29.014 55.3609 26.6093 52.3797 26.6093ZM52.3797 35.4968C50.4531 35.4968 48.8781 33.9265 48.8781 31.9952C48.8781 30.064 50.4484 28.4937 52.3797 28.4937C54.3109 28.4937 55.8813 30.064 55.8813 31.9952C55.8813 33.9265 54.3063 35.4968 52.3797 35.4968ZM59.2422 26.389C59.2422 27.0874 58.6797 27.6452 57.9859 27.6452C57.2875 27.6452 56.7297 27.0827 56.7297 26.389C56.7297 25.6952 57.2922 25.1327 57.9859 25.1327C58.6797 25.1327 59.2422 25.6952 59.2422 26.389ZM62.8094 27.664C62.7297 25.9812 62.3453 24.4905 61.1125 23.2624C59.8844 22.0343 58.3938 21.6499 56.7109 21.5655C54.9766 21.4671 49.7781 21.4671 48.0438 21.5655C46.3656 21.6452 44.875 22.0296 43.6422 23.2577C42.4094 24.4858 42.0297 25.9765 41.9453 27.6593C41.8469 29.3937 41.8469 34.5921 41.9453 36.3265C42.025 38.0093 42.4094 39.4999 43.6422 40.728C44.875 41.9562 46.3609 42.3405 48.0438 42.4249C49.7781 42.5233 54.9766 42.5233 56.7109 42.4249C58.3938 42.3452 59.8844 41.9608 61.1125 40.728C62.3406 39.4999 62.725 38.0093 62.8094 36.3265C62.9078 34.5921 62.9078 29.3983 62.8094 27.664ZM60.5688 38.1874C60.2031 39.1062 59.4953 39.814 58.5719 40.1843C57.1891 40.7327 53.9078 40.6062 52.3797 40.6062C50.8516 40.6062 47.5656 40.728 46.1875 40.1843C45.2688 39.8187 44.5609 39.1108 44.1906 38.1874C43.6422 36.8046 43.7688 33.5233 43.7688 31.9952C43.7688 30.4671 43.6469 27.1812 44.1906 25.803C44.5563 24.8843 45.2641 24.1765 46.1875 23.8062C47.5703 23.2577 50.8516 23.3843 52.3797 23.3843C53.9078 23.3843 57.1938 23.2624 58.5719 23.8062C59.4906 24.1718 60.1984 24.8796 60.5688 25.803C61.1172 27.1858 60.9906 30.4671 60.9906 31.9952C60.9906 33.5233 61.1172 36.8093 60.5688 38.1874Z" fill="white"/>
</g>
</g>
<g filter="url(#filter1_dd_15_474)">
<path d="M101.75 21C101.75 12.1634 108.913 5 117.75 5H160.5C169.337 5 176.5 12.1634 176.5 21V45C176.5 53.8366 169.337 61 160.5 61H117.75C108.913 61 101.75 53.8366 101.75 45V21Z" fill="url(#paint1_linear_15_474)"/>
<path d="M151.125 49H127.125V17H151.125V49Z" stroke="#E5E7EB"/>
<g clip-path="url(#clip1_15_474)">
<path d="M150.75 32C150.75 25.5781 145.547 20.375 139.125 20.375C132.703 20.375 127.5 25.5781 127.5 32C127.5 37.8022 131.751 42.6116 137.309 43.4844V35.3605H134.355V32H137.309V29.4388C137.309 26.5255 139.043 24.9162 141.699 24.9162C142.972 24.9162 144.302 25.1431 144.302 25.1431V28.0025H142.836C141.392 28.0025 140.941 28.8988 140.941 29.818V32H144.165L143.65 35.3605H140.941V43.4844C146.499 42.6116 150.75 37.8022 150.75 32Z" fill="white"/>
</g>
</g>
<g filter="url(#filter2_dd_15_474)">
<path d="M188.5 21C188.5 12.1634 195.663 5 204.5 5H247.25C256.087 5 263.25 12.1634 263.25 21V45C263.25 53.8366 256.087 61 247.25 61H204.5C195.663 61 188.5 53.8366 188.5 45V21Z" fill="url(#paint2_linear_15_474)"/>
<path d="M237.5 49H214.25V17H237.5V49Z" stroke="#E5E7EB"/>
<g clip-path="url(#clip2_15_474)">
<path d="M225.875 20.375C219.458 20.375 214.25 25.5828 214.25 32C214.25 38.4172 219.458 43.625 225.875 43.625C232.292 43.625 237.5 38.4172 237.5 32C237.5 25.5828 232.292 20.375 225.875 20.375ZM230.595 37.4797C230.398 37.4797 230.277 37.4187 230.094 37.3109C227.169 35.5484 223.766 35.4734 220.405 36.1625C220.222 36.2094 219.983 36.2844 219.847 36.2844C219.392 36.2844 219.106 35.9234 219.106 35.5438C219.106 35.0609 219.392 34.8312 219.744 34.7562C223.583 33.9078 227.506 33.9828 230.853 35.9844C231.139 36.1672 231.308 36.3313 231.308 36.7578C231.308 37.1844 230.975 37.4797 230.595 37.4797ZM231.856 34.4047C231.613 34.4047 231.448 34.2969 231.28 34.2078C228.35 32.4734 223.981 31.775 220.095 32.8297C219.87 32.8906 219.748 32.9516 219.538 32.9516C219.036 32.9516 218.628 32.5437 218.628 32.0422C218.628 31.5406 218.872 31.2078 219.355 31.0719C220.658 30.7063 221.989 30.4344 223.939 30.4344C226.981 30.4344 229.92 31.1891 232.236 32.5672C232.616 32.7922 232.766 33.0828 232.766 33.4906C232.761 33.9969 232.367 34.4047 231.856 34.4047ZM233.309 30.8328C233.066 30.8328 232.916 30.7719 232.705 30.65C229.367 28.6578 223.4 28.1797 219.538 29.2578C219.369 29.3047 219.158 29.3797 218.933 29.3797C218.314 29.3797 217.841 28.8969 217.841 28.2734C217.841 27.6359 218.234 27.275 218.656 27.1531C220.306 26.6703 222.153 26.4406 224.164 26.4406C227.586 26.4406 231.172 27.1531 233.792 28.6812C234.158 28.8922 234.397 29.1828 234.397 29.7406C234.397 30.3781 233.881 30.8328 233.309 30.8328Z" fill="white"/>
</g>
</g>
<g filter="url(#filter3_dd_15_474)">
<path d="M275.25 21C275.25 12.1634 282.413 5 291.25 5H334C342.837 5 350 12.1634 350 21V45C350 53.8366 342.837 61 334 61H291.25C282.413 61 275.25 53.8366 275.25 45V21Z" fill="url(#paint3_linear_15_474)"/>
<path d="M326.125 49H299.125V17H326.125V49Z" stroke="#E5E7EB"/>
<g clip-path="url(#clip3_15_474)">
<path d="M324.89 25.8164C324.596 24.7078 323.728 23.8347 322.627 23.5384C320.63 23 312.625 23 312.625 23C312.625 23 304.62 23 302.623 23.5384C301.522 23.8347 300.654 24.7078 300.36 25.8164C299.825 27.8258 299.825 32.0182 299.825 32.0182C299.825 32.0182 299.825 36.2106 300.36 38.22C300.654 39.3286 301.522 40.1653 302.623 40.4616C304.62 41 312.625 41 312.625 41C312.625 41 320.63 41 322.627 40.4616C323.728 40.1653 324.596 39.3286 324.89 38.22C325.425 36.2106 325.425 32.0182 325.425 32.0182C325.425 32.0182 325.425 27.8258 324.89 25.8164ZM310.007 35.8246V28.2118L316.698 32.0183L310.007 35.8246Z" fill="white"/>
</g>
</g>
<defs>
<filter id="filter0_dd_15_474" x="0" y="0" width="104.75" height="86" filterUnits="userSpaceOnUse" color-interpolation-filters="sRGB">
<feFlood flood-opacity="0" result="BackgroundImageFix"/>
<feColorMatrix in="SourceAlpha" type="matrix" values="0 0 0 0 0 0 0 0 0 0 0 0 0 0 0 0 0 0 127 0" result="hardAlpha"/>
<feOffset dy="10"/>
<feGaussianBlur stdDeviation="7.5"/>
<feColorMatrix type="matrix" values="0 0 0 0 0.658824 0 0 0 0 0.333333 0 0 0 0 0.968627 0 0 0 0.3 0"/>
<feBlend mode="normal" in2="BackgroundImageFix" result="effect1_dropShadow_15_474"/>
<feColorMatrix in="SourceAlpha" type="matrix" values="0 0 0 0 0 0 0 0 0 0 0 0 0 0 0 0 0 0 127 0" result="hardAlpha"/>
<feOffset dy="4"/>
<feGaussianBlur stdDeviation="3"/>
<feColorMatrix type="matrix" values="0 0 0 0 0.658824 0 0 0 0 0.333333 0 0 0 0 0.968627 0 0 0 0.3 0"/>
<feBlend mode="normal" in2="effect1_dropShadow_15_474" result="effect2_dropShadow_15_474"/>
<feBlend mode="normal" in="SourceGraphic" in2="effect2_dropShadow_15_474" result="shape"/>
</filter>
<filter id="filter1_dd_15_474" x="86.75" y="0" width="104.75" height="86" filterUnits="userSpaceOnUse" color-interpolation-filters="sRGB">
<feFlood flood-opacity="0" result="BackgroundImageFix"/>
<feColorMatrix in="SourceAlpha" type="matrix" values="0 0 0 0 0 0 0 0 0 0 0 0 0 0 0 0 0 0 127 0" result="hardAlpha"/>
<feOffset dy="10"/>
<feGaussianBlur stdDeviation="7.5"/>
<feColorMatrix type="matrix" values="0 0 0 0 0.231373 0 0 0 0 0.509804 0 0 0 0 0.964706 0 0 0 0.3 0"/>
<feBlend mode="normal" in2="BackgroundImageFix" result="effect1_dropShadow_15_474"/>
<feColorMatrix in="SourceAlpha" type="matrix" values="0 0 0 0 0 0 0 0 0 0 0 0 0 0 0 0 0 0 127 0" result="hardAlpha"/>
<feOffset dy="4"/>
<feGaussianBlur stdDeviation="3"/>
<feColorMatrix type="matrix" values="0 0 0 0 0.231373 0 0 0 0 0.509804 0 0 0 0 0.964706 0 0 0 0.3 0"/>
<feBlend mode="normal" in2="effect1_dropShadow_15_474" result="effect2_dropShadow_15_474"/>
<feBlend mode="normal" in="SourceGraphic" in2="effect2_dropShadow_15_474" result="shape"/>
</filter>
<filter id="filter2_dd_15_474" x="173.5" y="0" width="104.75" height="86" filterUnits="userSpaceOnUse" color-interpolation-filters="sRGB">
<feFlood flood-opacity="0" result="BackgroundImageFix"/>
<feColorMatrix in="SourceAlpha" type="matrix" values="0 0 0 0 0 0 0 0 0 0 0 0 0 0 0 0 0 0 127 0" result="hardAlpha"/>
<feOffset dy="10"/>
<feGaussianBlur stdDeviation="7.5"/>
<feColorMatrix type="matrix" values="0 0 0 0 0.133333 0 0 0 0 0.772549 0 0 0 0 0.368627 0 0 0 0.3 0"/>
<feBlend mode="normal" in2="BackgroundImageFix" result="effect1_dropShadow_15_474"/>
<feColorMatrix in="SourceAlpha" type="matrix" values="0 0 0 0 0 0 0 0 0 0 0 0 0 0 0 0 0 0 127 0" result="hardAlpha"/>
<feOffset dy="4"/>
<feGaussianBlur stdDeviation="3"/>
<feColorMatrix type="matrix" values="0 0 0 0 0.133333 0 0 0 0 0.772549 0 0 0 0 0.368627 0 0 0 0.3 0"/>
<feBlend mode="normal" in2="effect1_dropShadow_15_474" result="effect2_dropShadow_15_474"/>
<feBlend mode="normal" in="SourceGraphic" in2="effect2_dropShadow_15_474" result="shape"/>
</filter>
<filter id="filter3_dd_15_474" x="260.25" y="0" width="104.75" height="86" filterUnits="userSpaceOnUse" color-interpolation-filters="sRGB">
<feFlood flood-opacity="0" result="BackgroundImageFix"/>
<feColorMatrix in="SourceAlpha" type="matrix" values="0 0 0 0 0 0 0 0 0 0 0 0 0 0 0 0 0 0 127 0" result="hardAlpha"/>
<feOffset dy="10"/>
<feGaussianBlur stdDeviation="7.5"/>
<feColorMatrix type="matrix" values="0 0 0 0 0.937255 0 0 0 0 0.266667 0 0 0 0 0.266667 0 0 0 0.3 0"/>
<feBlend mode="normal" in2="BackgroundImageFix" result="effect1_dropShadow_15_474"/>
<feColorMatrix in="SourceAlpha" type="matrix" values="0 0 0 0 0 0 0 0 0 0 0 0 0 0 0 0 0 0 127 0" result="hardAlpha"/>
<feOffset dy="4"/>
<feGaussianBlur stdDeviation="3"/>
<feColorMatrix type="matrix" values="0 0 0 0 0.937255 0 0 0 0 0.266667 0 0 0 0 0.266667 0 0 0 0.3 0"/>
<feBlend mode="normal" in2="effect1_dropShadow_15_474" result="effect2_dropShadow_15_474"/>
<feBlend mode="normal" in="SourceGraphic" in2="effect2_dropShadow_15_474" result="shape"/>
</filter>
<linearGradient id="paint0_linear_15_474" x1="-11.4281" y1="24.799" x2="26.5741" y2="75.5251" gradientUnits="userSpaceOnUse">
<stop stop-color="#9333EA"/>
<stop offset="1" stop-color="#DB2777"/>
</linearGradient>
<linearGradient id="paint1_linear_15_474" x1="75.3219" y1="24.799" x2="113.324" y2="75.5251" gradientUnits="userSpaceOnUse">
<stop stop-color="#2563EB"/>
<stop offset="1" stop-color="#9333EA"/>
</linearGradient>
<linearGradient id="paint2_linear_15_474" x1="162.072" y1="24.799" x2="200.074" y2="75.5251" gradientUnits="userSpaceOnUse">
<stop stop-color="#22C55E"/>
<stop offset="1" stop-color="#16A34A"/>
</linearGradient>
<linearGradient id="paint3_linear_15_474" x1="248.822" y1="24.799" x2="286.824" y2="75.5251" gradientUnits="userSpaceOnUse">
<stop stop-color="#EF4444"/>
<stop offset="1" stop-color="#DB2777"/>
</linearGradient>
<clipPath id="clip0_15_474">
<path d="M41.875 20H62.875V44H41.875V20Z" fill="white"/>
</clipPath>
<clipPath id="clip1_15_474">
<path d="M127.125 20H151.125V44H127.125V20Z" fill="white"/>
</clipPath>
<clipPath id="clip2_15_474">
<path d="M214.25 20H237.5V44H214.25V20Z" fill="white"/>
</clipPath>
<clipPath id="clip3_15_474">
<path d="M299.125 20H326.125V44H299.125V20Z" fill="white"/>
</clipPath>
</defs>
</svg>
